<?xml version="1.0" encoding="UTF-8" standalone="no"?>
<!DOCTYPE svg PUBLIC "-//W3C//DTD SVG 1.1//EN" "http://www.w3.org/Graphics/SVG/1.1/DTD/svg11.dtd">
<svg width="100%" height="100%" viewBox="0 0 1000 1000" version="1.1" xmlns="http://www.w3.org/2000/svg" xmlns:xlink="http://www.w3.org/1999/xlink" xml:space="preserve" xmlns:serif="http://www.serif.com/" style="fill-rule:evenodd;clip-rule:evenodd;stroke-linejoin:round;stroke-miterlimit:2;">
    <rect id="Artboard1" x="0" y="0" width="1000" height="1000" style="fill:none;"/>
    <clipPath id="_clip1">
        <rect id="Artboard11" serif:id="Artboard1" x="0" y="0" width="1000" height="1000"/>
    </clipPath>
    <g clip-path="url(#_clip1)">
        <g transform="matrix(1.46515,0,0,1.46515,-84.1088,-455.879)">
            <g transform="matrix(144,0,0,144,56,703)">
                <path d="M0.01,-0L0.281,-0.71L0.366,-0.71L0.638,-0L0.494,-0L0.324,-0.485L0.154,-0L0.01,-0ZM0.14,-0.114L0.14,-0.243L0.514,-0.243L0.514,-0.114L0.14,-0.114Z" style="fill-rule:nonzero;"/>
            </g>
            <g transform="matrix(144,0,0,144,149.234,703)">
                <path d="M0.32,0.007C0.29,0.007 0.265,-0 0.243,-0.015C0.222,-0.03 0.206,-0.052 0.195,-0.08L0.202,-0.195C0.202,-0.179 0.205,-0.165 0.211,-0.153C0.217,-0.141 0.225,-0.132 0.236,-0.126C0.248,-0.12 0.261,-0.117 0.277,-0.117C0.302,-0.117 0.322,-0.125 0.335,-0.142C0.349,-0.158 0.356,-0.182 0.356,-0.212L0.356,-0.292C0.356,-0.323 0.349,-0.347 0.335,-0.364C0.322,-0.382 0.302,-0.39 0.277,-0.39C0.261,-0.39 0.248,-0.387 0.236,-0.38C0.225,-0.374 0.217,-0.365 0.211,-0.353C0.205,-0.341 0.202,-0.326 0.202,-0.309L0.192,-0.421C0.206,-0.451 0.223,-0.474 0.246,-0.49C0.268,-0.506 0.293,-0.514 0.32,-0.514C0.374,-0.514 0.416,-0.495 0.446,-0.456C0.475,-0.418 0.49,-0.363 0.49,-0.293L0.49,-0.212C0.49,-0.142 0.475,-0.088 0.446,-0.05C0.416,-0.012 0.374,0.007 0.32,0.007ZM0.068,-0L0.068,-0.71L0.202,-0.71L0.202,-0L0.068,-0Z" style="fill-rule:nonzero;"/>
            </g>
            <g transform="matrix(144,0,0,144,227.562,703)">
                <path d="M0.272,0.007C0.203,0.007 0.149,-0.012 0.111,-0.05C0.073,-0.089 0.054,-0.143 0.054,-0.213L0.054,-0.296C0.054,-0.365 0.073,-0.419 0.111,-0.457C0.149,-0.495 0.203,-0.514 0.272,-0.514C0.342,-0.514 0.396,-0.495 0.434,-0.457C0.472,-0.419 0.491,-0.365 0.491,-0.296L0.491,-0.212C0.491,-0.142 0.472,-0.088 0.434,-0.05C0.396,-0.012 0.342,0.007 0.272,0.007ZM0.272,-0.122C0.299,-0.122 0.32,-0.129 0.335,-0.145C0.35,-0.161 0.357,-0.183 0.357,-0.212L0.357,-0.296C0.357,-0.324 0.35,-0.346 0.335,-0.362C0.32,-0.377 0.299,-0.385 0.272,-0.385C0.245,-0.385 0.224,-0.377 0.209,-0.362C0.195,-0.346 0.188,-0.324 0.188,-0.296L0.188,-0.212C0.188,-0.183 0.195,-0.161 0.209,-0.145C0.224,-0.129 0.245,-0.122 0.272,-0.122Z" style="fill-rule:nonzero;"/>
            </g>
            <g transform="matrix(144,0,0,144,304.273,703)">
                <path d="M0.359,-0L0.359,-0.507L0.493,-0.507L0.493,-0L0.359,-0ZM0.202,-0.507L0.202,-0.199C0.202,-0.174 0.209,-0.155 0.223,-0.142C0.237,-0.128 0.256,-0.122 0.281,-0.122C0.306,-0.122 0.326,-0.128 0.339,-0.142C0.353,-0.156 0.359,-0.176 0.359,-0.202L0.366,-0.091C0.358,-0.066 0.343,-0.043 0.321,-0.023C0.3,-0.003 0.273,0.007 0.239,0.007C0.184,0.007 0.142,-0.01 0.113,-0.045C0.083,-0.081 0.068,-0.13 0.068,-0.194L0.068,-0.507L0.202,-0.507Z" style="fill-rule:nonzero;"/>
            </g>
            <g transform="matrix(144,0,0,144,384.359,703)">
                <path d="M0.21,0.002C0.165,0.002 0.132,-0.009 0.112,-0.032C0.092,-0.055 0.082,-0.089 0.082,-0.132L0.082,-0.654L0.215,-0.654L0.215,-0.165C0.215,-0.153 0.218,-0.144 0.223,-0.137C0.228,-0.13 0.235,-0.126 0.244,-0.126L0.277,-0.126L0.277,0.002L0.21,0.002ZM0.029,-0.393L0.029,-0.507L0.277,-0.507L0.277,-0.393L0.029,-0.393Z" style="fill-rule:nonzero;"/>
            </g>
            <g transform="matrix(144,0,0,144,431.328,703)">
            </g>
            <g transform="matrix(144,0,0,144,470,703)">
                <path d="M0.327,0.007C0.245,0.007 0.181,-0.016 0.136,-0.062C0.091,-0.108 0.068,-0.173 0.068,-0.257L0.068,-0.71L0.202,-0.71L0.202,-0.253C0.202,-0.213 0.213,-0.181 0.235,-0.159C0.257,-0.136 0.287,-0.125 0.327,-0.125C0.367,-0.125 0.398,-0.136 0.42,-0.159C0.442,-0.181 0.453,-0.213 0.453,-0.253L0.453,-0.71L0.587,-0.71L0.587,-0.257C0.587,-0.173 0.564,-0.108 0.519,-0.062C0.474,-0.016 0.41,0.007 0.327,0.007Z" style="fill-rule:nonzero;"/>
            </g>
            <g transform="matrix(144,0,0,144,563.656,703)">
                <path d="M0.262,0.007C0.217,0.007 0.173,0.001 0.132,-0.011C0.091,-0.023 0.056,-0.04 0.027,-0.062L0.109,-0.165C0.134,-0.149 0.159,-0.137 0.186,-0.129C0.213,-0.12 0.238,-0.116 0.262,-0.116C0.293,-0.116 0.318,-0.12 0.335,-0.126C0.352,-0.134 0.361,-0.143 0.361,-0.156C0.361,-0.171 0.355,-0.181 0.343,-0.187C0.331,-0.192 0.316,-0.196 0.296,-0.197C0.277,-0.199 0.257,-0.202 0.235,-0.205C0.214,-0.208 0.192,-0.211 0.17,-0.215C0.149,-0.219 0.13,-0.226 0.112,-0.235C0.095,-0.244 0.081,-0.258 0.07,-0.277C0.06,-0.296 0.055,-0.321 0.055,-0.354C0.055,-0.405 0.073,-0.444 0.109,-0.472C0.145,-0.5 0.196,-0.514 0.262,-0.514C0.301,-0.514 0.339,-0.508 0.376,-0.497C0.414,-0.486 0.448,-0.47 0.478,-0.449L0.398,-0.352C0.376,-0.364 0.353,-0.374 0.329,-0.38C0.305,-0.387 0.281,-0.391 0.259,-0.391C0.232,-0.391 0.211,-0.388 0.196,-0.381C0.181,-0.375 0.174,-0.367 0.174,-0.355C0.174,-0.346 0.179,-0.338 0.189,-0.333C0.2,-0.329 0.214,-0.325 0.23,-0.323C0.247,-0.321 0.266,-0.319 0.285,-0.316C0.308,-0.314 0.33,-0.311 0.353,-0.307C0.376,-0.303 0.397,-0.296 0.416,-0.287C0.435,-0.277 0.45,-0.262 0.462,-0.242C0.474,-0.222 0.479,-0.195 0.479,-0.16C0.479,-0.107 0.46,-0.066 0.422,-0.037C0.385,-0.007 0.331,0.007 0.262,0.007Z" style="fill-rule:nonzero;"/>
            </g>
            <g transform="matrix(144,0,0,144,638.328,703)">
            </g>
        </g>
    </g>
</svg>
