<?xml version="1.0" encoding="UTF-8" standalone="no"?>
<!DOCTYPE svg PUBLIC "-//W3C//DTD SVG 1.1//EN" "http://www.w3.org/Graphics/SVG/1.1/DTD/svg11.dtd">
<svg width="100%" height="100%" viewBox="0 0 10000 1000" version="1.1" xmlns="http://www.w3.org/2000/svg" xmlns:xlink="http://www.w3.org/1999/xlink" xml:space="preserve" xmlns:serif="http://www.serif.com/" style="fill-rule:evenodd;clip-rule:evenodd;stroke-linejoin:round;stroke-miterlimit:2;">
    <rect id="Artboard1" x="0" y="0" width="10000" height="1000" style="fill:none;"/>
    <g id="Artboard11" serif:id="Artboard1">
        <g transform="matrix(1.46515,0,0,1.46515,1470.88,-456.384)">
            <g transform="matrix(196.567,0,0,196.567,56,703)">
                <path d="M0.146,-0L0.146,-0.129L0.316,-0.129C0.36,-0.129 0.394,-0.139 0.418,-0.161C0.442,-0.182 0.454,-0.212 0.454,-0.25L0.454,-0.459C0.454,-0.498 0.442,-0.528 0.418,-0.549C0.394,-0.57 0.36,-0.581 0.316,-0.581L0.146,-0.581L0.146,-0.71L0.313,-0.71C0.402,-0.71 0.471,-0.688 0.52,-0.643C0.568,-0.599 0.593,-0.536 0.593,-0.456L0.593,-0.254C0.593,-0.204 0.582,-0.16 0.562,-0.121C0.541,-0.083 0.509,-0.053 0.468,-0.032C0.426,-0.011 0.375,-0 0.313,-0L0.146,-0ZM0.078,-0L0.078,-0.71L0.212,-0.71L0.212,-0L0.078,-0Z" style="fill:white;fill-rule:nonzero;"/>
            </g>
            <g transform="matrix(196.567,0,0,196.567,184.997,703)">
                <path d="M0.286,0.007C0.212,0.007 0.155,-0.012 0.114,-0.052C0.074,-0.091 0.054,-0.147 0.054,-0.22L0.054,-0.277C0.054,-0.352 0.073,-0.411 0.112,-0.452C0.151,-0.493 0.206,-0.514 0.277,-0.514C0.344,-0.514 0.396,-0.489 0.432,-0.44C0.469,-0.391 0.487,-0.321 0.487,-0.232L0.487,-0.199L0.141,-0.199L0.141,-0.289L0.365,-0.289L0.364,-0.301C0.36,-0.33 0.351,-0.352 0.336,-0.368C0.322,-0.384 0.302,-0.393 0.277,-0.393C0.245,-0.393 0.22,-0.383 0.202,-0.364C0.184,-0.345 0.175,-0.317 0.175,-0.282L0.175,-0.218C0.175,-0.183 0.185,-0.157 0.204,-0.138C0.224,-0.119 0.251,-0.109 0.286,-0.109C0.304,-0.109 0.321,-0.112 0.339,-0.119C0.356,-0.125 0.372,-0.134 0.387,-0.146L0.474,-0.068C0.448,-0.044 0.418,-0.026 0.385,-0.012C0.352,0.001 0.319,0.007 0.286,0.007Z" style="fill:white;fill-rule:nonzero;"/>
            </g>
            <g transform="matrix(196.567,0,0,196.567,290.383,703)">
                <path d="M0.262,0.007C0.217,0.007 0.173,0.001 0.132,-0.011C0.091,-0.023 0.056,-0.04 0.027,-0.062L0.109,-0.165C0.134,-0.149 0.159,-0.137 0.186,-0.129C0.213,-0.12 0.238,-0.116 0.262,-0.116C0.293,-0.116 0.318,-0.12 0.335,-0.126C0.352,-0.134 0.361,-0.143 0.361,-0.156C0.361,-0.171 0.355,-0.181 0.343,-0.187C0.331,-0.192 0.316,-0.196 0.296,-0.197C0.277,-0.199 0.257,-0.202 0.235,-0.205C0.214,-0.208 0.192,-0.211 0.17,-0.215C0.149,-0.219 0.13,-0.226 0.112,-0.235C0.095,-0.244 0.081,-0.258 0.07,-0.277C0.06,-0.296 0.055,-0.321 0.055,-0.354C0.055,-0.405 0.073,-0.444 0.109,-0.472C0.145,-0.5 0.196,-0.514 0.262,-0.514C0.301,-0.514 0.339,-0.508 0.376,-0.497C0.414,-0.486 0.448,-0.47 0.478,-0.449L0.398,-0.352C0.376,-0.364 0.353,-0.374 0.329,-0.38C0.305,-0.387 0.281,-0.391 0.259,-0.391C0.232,-0.391 0.211,-0.388 0.196,-0.381C0.181,-0.375 0.174,-0.367 0.174,-0.355C0.174,-0.346 0.179,-0.338 0.189,-0.333C0.2,-0.329 0.214,-0.325 0.23,-0.323C0.247,-0.321 0.266,-0.319 0.285,-0.316C0.308,-0.314 0.33,-0.311 0.353,-0.307C0.376,-0.303 0.397,-0.296 0.416,-0.287C0.435,-0.277 0.45,-0.262 0.462,-0.242C0.474,-0.222 0.479,-0.195 0.479,-0.16C0.479,-0.107 0.46,-0.066 0.422,-0.037C0.385,-0.007 0.331,0.007 0.262,0.007Z" style="fill:white;fill-rule:nonzero;"/>
            </g>
            <g transform="matrix(196.567,0,0,196.567,392.313,703)">
                <path d="M0.061,-0.576L0.061,-0.71L0.195,-0.71L0.195,-0.576L0.061,-0.576ZM0.061,-0L0.061,-0.507L0.195,-0.507L0.195,-0L0.061,-0Z" style="fill:white;fill-rule:nonzero;"/>
            </g>
            <g transform="matrix(196.567,0,0,196.567,441.647,703)">
                <path d="M0.248,0.206C0.208,0.206 0.172,0.199 0.14,0.185C0.108,0.171 0.083,0.151 0.066,0.125L0.156,0.042C0.167,0.055 0.181,0.064 0.197,0.071C0.213,0.078 0.229,0.081 0.247,0.081C0.274,0.081 0.296,0.074 0.314,0.059C0.333,0.044 0.342,0.022 0.342,-0.005L0.342,-0.507L0.476,-0.507L0.476,-0.015C0.476,0.055 0.456,0.11 0.416,0.148C0.377,0.187 0.321,0.206 0.248,0.206ZM0.224,0.007C0.17,0.007 0.128,-0.012 0.098,-0.05C0.069,-0.088 0.054,-0.142 0.054,-0.212L0.054,-0.293C0.054,-0.363 0.069,-0.418 0.098,-0.456C0.128,-0.495 0.17,-0.514 0.224,-0.514C0.251,-0.514 0.276,-0.506 0.298,-0.49C0.32,-0.474 0.338,-0.451 0.352,-0.421L0.342,-0.309C0.342,-0.326 0.339,-0.341 0.333,-0.353C0.327,-0.365 0.319,-0.374 0.307,-0.38C0.296,-0.387 0.283,-0.39 0.267,-0.39C0.242,-0.39 0.222,-0.382 0.208,-0.364C0.194,-0.347 0.188,-0.323 0.188,-0.292L0.188,-0.212C0.188,-0.182 0.194,-0.158 0.208,-0.142C0.222,-0.125 0.242,-0.117 0.267,-0.117C0.283,-0.117 0.296,-0.12 0.307,-0.126C0.319,-0.132 0.327,-0.141 0.333,-0.153C0.339,-0.165 0.342,-0.179 0.342,-0.195L0.349,-0.08C0.339,-0.052 0.323,-0.03 0.301,-0.015C0.279,-0 0.254,0.007 0.224,0.007Z" style="fill:white;fill-rule:nonzero;"/>
            </g>
            <g transform="matrix(196.567,0,0,196.567,547.609,703)">
                <path d="M0.068,-0L0.068,-0.507L0.202,-0.507L0.202,-0L0.068,-0ZM0.361,-0L0.361,-0.307C0.361,-0.332 0.354,-0.351 0.34,-0.365C0.326,-0.378 0.306,-0.385 0.28,-0.385C0.255,-0.385 0.236,-0.378 0.222,-0.364C0.209,-0.351 0.202,-0.331 0.202,-0.306L0.192,-0.418C0.207,-0.449 0.224,-0.473 0.245,-0.489C0.266,-0.506 0.294,-0.514 0.327,-0.514C0.381,-0.514 0.422,-0.496 0.451,-0.46C0.48,-0.424 0.495,-0.373 0.495,-0.308L0.495,-0L0.361,-0Z" style="fill:white;fill-rule:nonzero;"/>
            </g>
            <g transform="matrix(196.567,0,0,196.567,657.41,703)">
                <path d="M0.286,0.007C0.212,0.007 0.155,-0.012 0.114,-0.052C0.074,-0.091 0.054,-0.147 0.054,-0.22L0.054,-0.277C0.054,-0.352 0.073,-0.411 0.112,-0.452C0.151,-0.493 0.206,-0.514 0.277,-0.514C0.344,-0.514 0.396,-0.489 0.432,-0.44C0.469,-0.391 0.487,-0.321 0.487,-0.232L0.487,-0.199L0.141,-0.199L0.141,-0.289L0.365,-0.289L0.364,-0.301C0.36,-0.33 0.351,-0.352 0.336,-0.368C0.322,-0.384 0.302,-0.393 0.277,-0.393C0.245,-0.393 0.22,-0.383 0.202,-0.364C0.184,-0.345 0.175,-0.317 0.175,-0.282L0.175,-0.218C0.175,-0.183 0.185,-0.157 0.204,-0.138C0.224,-0.119 0.251,-0.109 0.286,-0.109C0.304,-0.109 0.321,-0.112 0.339,-0.119C0.356,-0.125 0.372,-0.134 0.387,-0.146L0.474,-0.068C0.448,-0.044 0.418,-0.026 0.385,-0.012C0.352,0.001 0.319,0.007 0.286,0.007Z" style="fill:white;fill-rule:nonzero;"/>
            </g>
            <g transform="matrix(196.567,0,0,196.567,762.796,703)">
                <path d="M0.342,-0L0.342,-0.71L0.476,-0.71L0.476,-0L0.342,-0ZM0.224,0.007C0.17,0.007 0.128,-0.012 0.098,-0.05C0.069,-0.088 0.054,-0.142 0.054,-0.212L0.054,-0.293C0.054,-0.363 0.069,-0.418 0.098,-0.456C0.128,-0.495 0.17,-0.514 0.224,-0.514C0.251,-0.514 0.276,-0.506 0.298,-0.49C0.32,-0.474 0.338,-0.451 0.352,-0.421L0.342,-0.309C0.342,-0.326 0.339,-0.341 0.333,-0.353C0.327,-0.365 0.319,-0.374 0.307,-0.38C0.296,-0.387 0.283,-0.39 0.267,-0.39C0.242,-0.39 0.222,-0.382 0.208,-0.364C0.194,-0.347 0.188,-0.323 0.188,-0.292L0.188,-0.212C0.188,-0.182 0.194,-0.158 0.208,-0.142C0.222,-0.125 0.242,-0.117 0.267,-0.117C0.283,-0.117 0.296,-0.12 0.307,-0.126C0.319,-0.132 0.327,-0.141 0.333,-0.153C0.339,-0.165 0.342,-0.179 0.342,-0.195L0.349,-0.08C0.339,-0.052 0.323,-0.03 0.301,-0.015C0.279,-0 0.254,0.007 0.224,0.007Z" style="fill:white;fill-rule:nonzero;"/>
            </g>
            <g transform="matrix(196.567,0,0,196.567,868.757,703)">
                <path d="M0.046,0.169L0.046,-0.134L0.18,-0.134L0.18,0.041L0.046,0.169Z" style="fill:white;fill-rule:nonzero;"/>
            </g>
            <g transform="matrix(196.567,0,0,196.567,913.292,703)">
            </g>
            <g transform="matrix(196.567,0,0,196.567,966.081,703)">
                <path d="M0.39,-0.231L0.525,-0.71L0.701,-0.71L0.701,-0L0.58,-0L0.58,-0.551L0.584,-0.52L0.449,-0.079L0.331,-0.079L0.195,-0.51L0.2,-0.551L0.2,-0L0.078,-0L0.078,-0.71L0.254,-0.71L0.39,-0.231Z" style="fill:white;fill-rule:nonzero;"/>
            </g>
            <g transform="matrix(196.567,0,0,196.567,1119.26,703)">
                <path d="M0.347,-0L0.347,-0.321C0.347,-0.345 0.339,-0.363 0.324,-0.375C0.308,-0.388 0.286,-0.395 0.257,-0.395C0.238,-0.395 0.22,-0.391 0.201,-0.385C0.183,-0.379 0.166,-0.371 0.152,-0.359L0.069,-0.441C0.089,-0.464 0.116,-0.482 0.149,-0.495C0.182,-0.508 0.219,-0.514 0.259,-0.514C0.326,-0.514 0.378,-0.498 0.414,-0.465C0.451,-0.432 0.469,-0.386 0.469,-0.326L0.469,-0L0.347,-0ZM0.206,0.007C0.152,0.007 0.111,-0.006 0.084,-0.031C0.057,-0.057 0.044,-0.096 0.044,-0.149C0.044,-0.2 0.059,-0.237 0.089,-0.262C0.119,-0.287 0.164,-0.3 0.225,-0.3L0.352,-0.3L0.358,-0.198L0.225,-0.198C0.205,-0.198 0.19,-0.194 0.18,-0.186C0.17,-0.178 0.165,-0.166 0.165,-0.149C0.165,-0.133 0.171,-0.12 0.184,-0.112C0.197,-0.104 0.216,-0.101 0.241,-0.101C0.277,-0.101 0.303,-0.105 0.321,-0.113C0.338,-0.121 0.347,-0.134 0.347,-0.151L0.357,-0.077C0.355,-0.058 0.347,-0.042 0.332,-0.029C0.316,-0.017 0.297,-0.008 0.275,-0.001C0.253,0.004 0.23,0.007 0.206,0.007Z" style="fill:white;fill-rule:nonzero;"/>
            </g>
            <g transform="matrix(196.567,0,0,196.567,1223.88,703)">
                <path d="M0.068,-0L0.068,-0.507L0.202,-0.507L0.202,-0L0.068,-0ZM0.361,-0L0.361,-0.307C0.361,-0.332 0.354,-0.351 0.34,-0.365C0.326,-0.378 0.306,-0.385 0.28,-0.385C0.255,-0.385 0.236,-0.378 0.222,-0.364C0.209,-0.351 0.202,-0.331 0.202,-0.306L0.192,-0.418C0.207,-0.449 0.224,-0.473 0.245,-0.489C0.266,-0.506 0.294,-0.514 0.327,-0.514C0.381,-0.514 0.422,-0.496 0.451,-0.46C0.48,-0.424 0.495,-0.373 0.495,-0.308L0.495,-0L0.361,-0Z" style="fill:white;fill-rule:nonzero;"/>
            </g>
            <g transform="matrix(196.567,0,0,196.567,1333.68,703)">
                <path d="M0.359,-0L0.359,-0.507L0.493,-0.507L0.493,-0L0.359,-0ZM0.202,-0.507L0.202,-0.199C0.202,-0.174 0.209,-0.155 0.223,-0.142C0.237,-0.128 0.256,-0.122 0.281,-0.122C0.306,-0.122 0.326,-0.128 0.339,-0.142C0.353,-0.156 0.359,-0.176 0.359,-0.202L0.366,-0.091C0.358,-0.066 0.343,-0.043 0.321,-0.023C0.3,-0.003 0.273,0.007 0.239,0.007C0.184,0.007 0.142,-0.01 0.113,-0.045C0.083,-0.081 0.068,-0.13 0.068,-0.194L0.068,-0.507L0.202,-0.507Z" style="fill:white;fill-rule:nonzero;"/>
            </g>
            <g transform="matrix(196.567,0,0,196.567,1443,703)">
                <path d="M0.083,-0L0.083,-0.576C0.083,-0.62 0.093,-0.654 0.114,-0.676C0.134,-0.699 0.166,-0.71 0.209,-0.71L0.302,-0.71L0.302,-0.591L0.246,-0.591C0.236,-0.591 0.228,-0.587 0.224,-0.579C0.219,-0.572 0.217,-0.563 0.217,-0.552L0.217,-0L0.083,-0ZM0.029,-0.393L0.029,-0.507L0.302,-0.507L0.302,-0.393L0.029,-0.393Z" style="fill:white;fill-rule:nonzero;"/>
            </g>
            <g transform="matrix(196.567,0,0,196.567,1501.46,703)">
                <path d="M0.347,-0L0.347,-0.321C0.347,-0.345 0.339,-0.363 0.324,-0.375C0.308,-0.388 0.286,-0.395 0.257,-0.395C0.238,-0.395 0.22,-0.391 0.201,-0.385C0.183,-0.379 0.166,-0.371 0.152,-0.359L0.069,-0.441C0.089,-0.464 0.116,-0.482 0.149,-0.495C0.182,-0.508 0.219,-0.514 0.259,-0.514C0.326,-0.514 0.378,-0.498 0.414,-0.465C0.451,-0.432 0.469,-0.386 0.469,-0.326L0.469,-0L0.347,-0ZM0.206,0.007C0.152,0.007 0.111,-0.006 0.084,-0.031C0.057,-0.057 0.044,-0.096 0.044,-0.149C0.044,-0.2 0.059,-0.237 0.089,-0.262C0.119,-0.287 0.164,-0.3 0.225,-0.3L0.352,-0.3L0.358,-0.198L0.225,-0.198C0.205,-0.198 0.19,-0.194 0.18,-0.186C0.17,-0.178 0.165,-0.166 0.165,-0.149C0.165,-0.133 0.171,-0.12 0.184,-0.112C0.197,-0.104 0.216,-0.101 0.241,-0.101C0.277,-0.101 0.303,-0.105 0.321,-0.113C0.338,-0.121 0.347,-0.134 0.347,-0.151L0.357,-0.077C0.355,-0.058 0.347,-0.042 0.332,-0.029C0.316,-0.017 0.297,-0.008 0.275,-0.001C0.253,0.004 0.23,0.007 0.206,0.007Z" style="fill:white;fill-rule:nonzero;"/>
            </g>
            <g transform="matrix(196.567,0,0,196.567,1606.07,703)">
                <path d="M0.283,0.007C0.21,0.007 0.154,-0.013 0.114,-0.054C0.074,-0.095 0.054,-0.153 0.054,-0.228L0.054,-0.282C0.054,-0.356 0.074,-0.413 0.114,-0.453C0.154,-0.494 0.21,-0.514 0.283,-0.514C0.324,-0.514 0.362,-0.507 0.396,-0.493C0.429,-0.479 0.456,-0.459 0.476,-0.433L0.39,-0.349C0.378,-0.361 0.363,-0.369 0.346,-0.375C0.33,-0.382 0.312,-0.385 0.294,-0.385C0.26,-0.385 0.234,-0.376 0.215,-0.358C0.197,-0.34 0.188,-0.315 0.188,-0.282L0.188,-0.228C0.188,-0.194 0.197,-0.167 0.215,-0.149C0.234,-0.131 0.26,-0.122 0.294,-0.122C0.312,-0.122 0.33,-0.125 0.346,-0.132C0.363,-0.139 0.378,-0.148 0.39,-0.161L0.476,-0.072C0.456,-0.047 0.429,-0.027 0.396,-0.013C0.362,0 0.324,0.007 0.283,0.007Z" style="fill:white;fill-rule:nonzero;"/>
            </g>
            <g transform="matrix(196.567,0,0,196.567,1703.97,703)">
                <path d="M0.21,0.002C0.165,0.002 0.132,-0.009 0.112,-0.032C0.092,-0.055 0.082,-0.089 0.082,-0.132L0.082,-0.654L0.215,-0.654L0.215,-0.165C0.215,-0.153 0.218,-0.144 0.223,-0.137C0.228,-0.13 0.235,-0.126 0.244,-0.126L0.277,-0.126L0.277,0.002L0.21,0.002ZM0.029,-0.393L0.029,-0.507L0.277,-0.507L0.277,-0.393L0.029,-0.393Z" style="fill:white;fill-rule:nonzero;"/>
            </g>
            <g transform="matrix(196.567,0,0,196.567,1768.09,703)">
                <path d="M0.359,-0L0.359,-0.507L0.493,-0.507L0.493,-0L0.359,-0ZM0.202,-0.507L0.202,-0.199C0.202,-0.174 0.209,-0.155 0.223,-0.142C0.237,-0.128 0.256,-0.122 0.281,-0.122C0.306,-0.122 0.326,-0.128 0.339,-0.142C0.353,-0.156 0.359,-0.176 0.359,-0.202L0.366,-0.091C0.358,-0.066 0.343,-0.043 0.321,-0.023C0.3,-0.003 0.273,0.007 0.239,0.007C0.184,0.007 0.142,-0.01 0.113,-0.045C0.083,-0.081 0.068,-0.13 0.068,-0.194L0.068,-0.507L0.202,-0.507Z" style="fill:white;fill-rule:nonzero;"/>
            </g>
            <g transform="matrix(196.567,0,0,196.567,1877.41,703)">
                <path d="M0.286,0.007C0.212,0.007 0.155,-0.012 0.114,-0.052C0.074,-0.091 0.054,-0.147 0.054,-0.22L0.054,-0.277C0.054,-0.352 0.073,-0.411 0.112,-0.452C0.151,-0.493 0.206,-0.514 0.277,-0.514C0.344,-0.514 0.396,-0.489 0.432,-0.44C0.469,-0.391 0.487,-0.321 0.487,-0.232L0.487,-0.199L0.141,-0.199L0.141,-0.289L0.365,-0.289L0.364,-0.301C0.36,-0.33 0.351,-0.352 0.336,-0.368C0.322,-0.384 0.302,-0.393 0.277,-0.393C0.245,-0.393 0.22,-0.383 0.202,-0.364C0.184,-0.345 0.175,-0.317 0.175,-0.282L0.175,-0.218C0.175,-0.183 0.185,-0.157 0.204,-0.138C0.224,-0.119 0.251,-0.109 0.286,-0.109C0.304,-0.109 0.321,-0.112 0.339,-0.119C0.356,-0.125 0.372,-0.134 0.387,-0.146L0.474,-0.068C0.448,-0.044 0.418,-0.026 0.385,-0.012C0.352,0.001 0.319,0.007 0.286,0.007Z" style="fill:white;fill-rule:nonzero;"/>
            </g>
            <g transform="matrix(196.567,0,0,196.567,1982.8,703)">
                <path d="M0.068,-0L0.068,-0.507L0.212,-0.507L0.212,-0L0.068,-0ZM0.354,-0.366C0.347,-0.372 0.339,-0.377 0.33,-0.38C0.32,-0.384 0.309,-0.385 0.297,-0.385C0.27,-0.385 0.249,-0.376 0.234,-0.359C0.219,-0.342 0.212,-0.318 0.212,-0.287L0.202,-0.418C0.216,-0.448 0.234,-0.472 0.256,-0.489C0.278,-0.506 0.303,-0.514 0.33,-0.514C0.351,-0.514 0.37,-0.511 0.387,-0.504C0.404,-0.497 0.419,-0.488 0.432,-0.475L0.354,-0.366Z" style="fill:white;fill-rule:nonzero;"/>
            </g>
            <g transform="matrix(196.567,0,0,196.567,2064.76,703)">
                <path d="M0.286,0.007C0.212,0.007 0.155,-0.012 0.114,-0.052C0.074,-0.091 0.054,-0.147 0.054,-0.22L0.054,-0.277C0.054,-0.352 0.073,-0.411 0.112,-0.452C0.151,-0.493 0.206,-0.514 0.277,-0.514C0.344,-0.514 0.396,-0.489 0.432,-0.44C0.469,-0.391 0.487,-0.321 0.487,-0.232L0.487,-0.199L0.141,-0.199L0.141,-0.289L0.365,-0.289L0.364,-0.301C0.36,-0.33 0.351,-0.352 0.336,-0.368C0.322,-0.384 0.302,-0.393 0.277,-0.393C0.245,-0.393 0.22,-0.383 0.202,-0.364C0.184,-0.345 0.175,-0.317 0.175,-0.282L0.175,-0.218C0.175,-0.183 0.185,-0.157 0.204,-0.138C0.224,-0.119 0.251,-0.109 0.286,-0.109C0.304,-0.109 0.321,-0.112 0.339,-0.119C0.356,-0.125 0.372,-0.134 0.387,-0.146L0.474,-0.068C0.448,-0.044 0.418,-0.026 0.385,-0.012C0.352,0.001 0.319,0.007 0.286,0.007Z" style="fill:white;fill-rule:nonzero;"/>
            </g>
            <g transform="matrix(196.567,0,0,196.567,2170.15,703)">
                <path d="M0.342,-0L0.342,-0.71L0.476,-0.71L0.476,-0L0.342,-0ZM0.224,0.007C0.17,0.007 0.128,-0.012 0.098,-0.05C0.069,-0.088 0.054,-0.142 0.054,-0.212L0.054,-0.293C0.054,-0.363 0.069,-0.418 0.098,-0.456C0.128,-0.495 0.17,-0.514 0.224,-0.514C0.251,-0.514 0.276,-0.506 0.298,-0.49C0.32,-0.474 0.338,-0.451 0.352,-0.421L0.342,-0.309C0.342,-0.326 0.339,-0.341 0.333,-0.353C0.327,-0.365 0.319,-0.374 0.307,-0.38C0.296,-0.387 0.283,-0.39 0.267,-0.39C0.242,-0.39 0.222,-0.382 0.208,-0.364C0.194,-0.347 0.188,-0.323 0.188,-0.292L0.188,-0.212C0.188,-0.182 0.194,-0.158 0.208,-0.142C0.222,-0.125 0.242,-0.117 0.267,-0.117C0.283,-0.117 0.296,-0.12 0.307,-0.126C0.319,-0.132 0.327,-0.141 0.333,-0.153C0.339,-0.165 0.342,-0.179 0.342,-0.195L0.349,-0.08C0.339,-0.052 0.323,-0.03 0.301,-0.015C0.279,-0 0.254,0.007 0.224,0.007Z" style="fill:white;fill-rule:nonzero;"/>
            </g>
            <g transform="matrix(196.567,0,0,196.567,2276.11,703)">
                <path d="M0.046,0.169L0.046,-0.134L0.18,-0.134L0.18,0.041L0.046,0.169Z" style="fill:white;fill-rule:nonzero;"/>
            </g>
            <g transform="matrix(196.567,0,0,196.567,2320.64,703)">
            </g>
            <g transform="matrix(196.567,0,0,196.567,2373.43,703)">
                <path d="M0.347,-0L0.347,-0.321C0.347,-0.345 0.339,-0.363 0.324,-0.375C0.308,-0.388 0.286,-0.395 0.257,-0.395C0.238,-0.395 0.22,-0.391 0.201,-0.385C0.183,-0.379 0.166,-0.371 0.152,-0.359L0.069,-0.441C0.089,-0.464 0.116,-0.482 0.149,-0.495C0.182,-0.508 0.219,-0.514 0.259,-0.514C0.326,-0.514 0.378,-0.498 0.414,-0.465C0.451,-0.432 0.469,-0.386 0.469,-0.326L0.469,-0L0.347,-0ZM0.206,0.007C0.152,0.007 0.111,-0.006 0.084,-0.031C0.057,-0.057 0.044,-0.096 0.044,-0.149C0.044,-0.2 0.059,-0.237 0.089,-0.262C0.119,-0.287 0.164,-0.3 0.225,-0.3L0.352,-0.3L0.358,-0.198L0.225,-0.198C0.205,-0.198 0.19,-0.194 0.18,-0.186C0.17,-0.178 0.165,-0.166 0.165,-0.149C0.165,-0.133 0.171,-0.12 0.184,-0.112C0.197,-0.104 0.216,-0.101 0.241,-0.101C0.277,-0.101 0.303,-0.105 0.321,-0.113C0.338,-0.121 0.347,-0.134 0.347,-0.151L0.357,-0.077C0.355,-0.058 0.347,-0.042 0.332,-0.029C0.316,-0.017 0.297,-0.008 0.275,-0.001C0.253,0.004 0.23,0.007 0.206,0.007Z" style="fill:white;fill-rule:nonzero;"/>
            </g>
            <g transform="matrix(196.567,0,0,196.567,2478.05,703)">
                <path d="M0.068,-0L0.068,-0.507L0.202,-0.507L0.202,-0L0.068,-0ZM0.361,-0L0.361,-0.307C0.361,-0.332 0.354,-0.351 0.34,-0.365C0.326,-0.378 0.306,-0.385 0.28,-0.385C0.255,-0.385 0.236,-0.378 0.222,-0.364C0.209,-0.351 0.202,-0.331 0.202,-0.306L0.192,-0.418C0.207,-0.449 0.224,-0.473 0.245,-0.489C0.266,-0.506 0.294,-0.514 0.327,-0.514C0.381,-0.514 0.422,-0.496 0.451,-0.46C0.48,-0.424 0.495,-0.373 0.495,-0.308L0.495,-0L0.361,-0Z" style="fill:white;fill-rule:nonzero;"/>
            </g>
            <g transform="matrix(196.567,0,0,196.567,2587.85,703)">
                <path d="M0.342,-0L0.342,-0.71L0.476,-0.71L0.476,-0L0.342,-0ZM0.224,0.007C0.17,0.007 0.128,-0.012 0.098,-0.05C0.069,-0.088 0.054,-0.142 0.054,-0.212L0.054,-0.293C0.054,-0.363 0.069,-0.418 0.098,-0.456C0.128,-0.495 0.17,-0.514 0.224,-0.514C0.251,-0.514 0.276,-0.506 0.298,-0.49C0.32,-0.474 0.338,-0.451 0.352,-0.421L0.342,-0.309C0.342,-0.326 0.339,-0.341 0.333,-0.353C0.327,-0.365 0.319,-0.374 0.307,-0.38C0.296,-0.387 0.283,-0.39 0.267,-0.39C0.242,-0.39 0.222,-0.382 0.208,-0.364C0.194,-0.347 0.188,-0.323 0.188,-0.292L0.188,-0.212C0.188,-0.182 0.194,-0.158 0.208,-0.142C0.222,-0.125 0.242,-0.117 0.267,-0.117C0.283,-0.117 0.296,-0.12 0.307,-0.126C0.319,-0.132 0.327,-0.141 0.333,-0.153C0.339,-0.165 0.342,-0.179 0.342,-0.195L0.349,-0.08C0.339,-0.052 0.323,-0.03 0.301,-0.015C0.279,-0 0.254,0.007 0.224,0.007Z" style="fill:white;fill-rule:nonzero;"/>
            </g>
            <g transform="matrix(196.567,0,0,196.567,2693.81,703)">
            </g>
            <g transform="matrix(196.567,0,0,196.567,2746.6,703)">
                <path d="M0.01,-0L0.281,-0.71L0.366,-0.71L0.638,-0L0.494,-0L0.324,-0.485L0.154,-0L0.01,-0ZM0.14,-0.114L0.14,-0.243L0.514,-0.243L0.514,-0.114L0.14,-0.114Z" style="fill:white;fill-rule:nonzero;"/>
            </g>
            <g transform="matrix(196.567,0,0,196.567,2873.87,703)">
                <path d="M0.262,0.007C0.217,0.007 0.173,0.001 0.132,-0.011C0.091,-0.023 0.056,-0.04 0.027,-0.062L0.109,-0.165C0.134,-0.149 0.159,-0.137 0.186,-0.129C0.213,-0.12 0.238,-0.116 0.262,-0.116C0.293,-0.116 0.318,-0.12 0.335,-0.126C0.352,-0.134 0.361,-0.143 0.361,-0.156C0.361,-0.171 0.355,-0.181 0.343,-0.187C0.331,-0.192 0.316,-0.196 0.296,-0.197C0.277,-0.199 0.257,-0.202 0.235,-0.205C0.214,-0.208 0.192,-0.211 0.17,-0.215C0.149,-0.219 0.13,-0.226 0.112,-0.235C0.095,-0.244 0.081,-0.258 0.07,-0.277C0.06,-0.296 0.055,-0.321 0.055,-0.354C0.055,-0.405 0.073,-0.444 0.109,-0.472C0.145,-0.5 0.196,-0.514 0.262,-0.514C0.301,-0.514 0.339,-0.508 0.376,-0.497C0.414,-0.486 0.448,-0.47 0.478,-0.449L0.398,-0.352C0.376,-0.364 0.353,-0.374 0.329,-0.38C0.305,-0.387 0.281,-0.391 0.259,-0.391C0.232,-0.391 0.211,-0.388 0.196,-0.381C0.181,-0.375 0.174,-0.367 0.174,-0.355C0.174,-0.346 0.179,-0.338 0.189,-0.333C0.2,-0.329 0.214,-0.325 0.23,-0.323C0.247,-0.321 0.266,-0.319 0.285,-0.316C0.308,-0.314 0.33,-0.311 0.353,-0.307C0.376,-0.303 0.397,-0.296 0.416,-0.287C0.435,-0.277 0.45,-0.262 0.462,-0.242C0.474,-0.222 0.479,-0.195 0.479,-0.16C0.479,-0.107 0.46,-0.066 0.422,-0.037C0.385,-0.007 0.331,0.007 0.262,0.007Z" style="fill:white;fill-rule:nonzero;"/>
            </g>
            <g transform="matrix(196.567,0,0,196.567,2975.8,703)">
                <path d="M0.262,0.007C0.217,0.007 0.173,0.001 0.132,-0.011C0.091,-0.023 0.056,-0.04 0.027,-0.062L0.109,-0.165C0.134,-0.149 0.159,-0.137 0.186,-0.129C0.213,-0.12 0.238,-0.116 0.262,-0.116C0.293,-0.116 0.318,-0.12 0.335,-0.126C0.352,-0.134 0.361,-0.143 0.361,-0.156C0.361,-0.171 0.355,-0.181 0.343,-0.187C0.331,-0.192 0.316,-0.196 0.296,-0.197C0.277,-0.199 0.257,-0.202 0.235,-0.205C0.214,-0.208 0.192,-0.211 0.17,-0.215C0.149,-0.219 0.13,-0.226 0.112,-0.235C0.095,-0.244 0.081,-0.258 0.07,-0.277C0.06,-0.296 0.055,-0.321 0.055,-0.354C0.055,-0.405 0.073,-0.444 0.109,-0.472C0.145,-0.5 0.196,-0.514 0.262,-0.514C0.301,-0.514 0.339,-0.508 0.376,-0.497C0.414,-0.486 0.448,-0.47 0.478,-0.449L0.398,-0.352C0.376,-0.364 0.353,-0.374 0.329,-0.38C0.305,-0.387 0.281,-0.391 0.259,-0.391C0.232,-0.391 0.211,-0.388 0.196,-0.381C0.181,-0.375 0.174,-0.367 0.174,-0.355C0.174,-0.346 0.179,-0.338 0.189,-0.333C0.2,-0.329 0.214,-0.325 0.23,-0.323C0.247,-0.321 0.266,-0.319 0.285,-0.316C0.308,-0.314 0.33,-0.311 0.353,-0.307C0.376,-0.303 0.397,-0.296 0.416,-0.287C0.435,-0.277 0.45,-0.262 0.462,-0.242C0.474,-0.222 0.479,-0.195 0.479,-0.16C0.479,-0.107 0.46,-0.066 0.422,-0.037C0.385,-0.007 0.331,0.007 0.262,0.007Z" style="fill:white;fill-rule:nonzero;"/>
            </g>
            <g transform="matrix(196.567,0,0,196.567,3077.73,703)">
                <path d="M0.286,0.007C0.212,0.007 0.155,-0.012 0.114,-0.052C0.074,-0.091 0.054,-0.147 0.054,-0.22L0.054,-0.277C0.054,-0.352 0.073,-0.411 0.112,-0.452C0.151,-0.493 0.206,-0.514 0.277,-0.514C0.344,-0.514 0.396,-0.489 0.432,-0.44C0.469,-0.391 0.487,-0.321 0.487,-0.232L0.487,-0.199L0.141,-0.199L0.141,-0.289L0.365,-0.289L0.364,-0.301C0.36,-0.33 0.351,-0.352 0.336,-0.368C0.322,-0.384 0.302,-0.393 0.277,-0.393C0.245,-0.393 0.22,-0.383 0.202,-0.364C0.184,-0.345 0.175,-0.317 0.175,-0.282L0.175,-0.218C0.175,-0.183 0.185,-0.157 0.204,-0.138C0.224,-0.119 0.251,-0.109 0.286,-0.109C0.304,-0.109 0.321,-0.112 0.339,-0.119C0.356,-0.125 0.372,-0.134 0.387,-0.146L0.474,-0.068C0.448,-0.044 0.418,-0.026 0.385,-0.012C0.352,0.001 0.319,0.007 0.286,0.007Z" style="fill:white;fill-rule:nonzero;"/>
            </g>
            <g transform="matrix(196.567,0,0,196.567,3183.12,703)">
                <path d="M0.659,-0L0.659,-0.292C0.659,-0.322 0.652,-0.345 0.638,-0.361C0.624,-0.377 0.604,-0.385 0.578,-0.385C0.552,-0.385 0.532,-0.377 0.518,-0.362C0.504,-0.347 0.498,-0.325 0.498,-0.296L0.473,-0.414C0.489,-0.446 0.509,-0.471 0.535,-0.488C0.561,-0.505 0.589,-0.514 0.62,-0.514C0.675,-0.514 0.718,-0.495 0.748,-0.456C0.778,-0.418 0.793,-0.363 0.793,-0.293L0.793,-0L0.659,-0ZM0.068,-0L0.068,-0.507L0.202,-0.507L0.202,-0L0.068,-0ZM0.364,-0L0.364,-0.292C0.364,-0.322 0.356,-0.345 0.342,-0.361C0.327,-0.377 0.307,-0.385 0.28,-0.385C0.255,-0.385 0.236,-0.378 0.222,-0.364C0.209,-0.351 0.202,-0.331 0.202,-0.306L0.192,-0.418C0.207,-0.449 0.225,-0.473 0.247,-0.489C0.27,-0.506 0.296,-0.514 0.327,-0.514C0.382,-0.514 0.424,-0.495 0.453,-0.456C0.483,-0.418 0.498,-0.363 0.498,-0.293L0.498,-0L0.364,-0Z" style="fill:white;fill-rule:nonzero;"/>
            </g>
            <g transform="matrix(196.567,0,0,196.567,3351.47,703)">
                <path d="M0.32,0.007C0.29,0.007 0.265,-0 0.243,-0.015C0.222,-0.03 0.206,-0.052 0.195,-0.08L0.202,-0.195C0.202,-0.179 0.205,-0.165 0.211,-0.153C0.217,-0.141 0.225,-0.132 0.236,-0.126C0.248,-0.12 0.261,-0.117 0.277,-0.117C0.302,-0.117 0.322,-0.125 0.335,-0.142C0.349,-0.158 0.356,-0.182 0.356,-0.212L0.356,-0.292C0.356,-0.323 0.349,-0.347 0.335,-0.364C0.322,-0.382 0.302,-0.39 0.277,-0.39C0.261,-0.39 0.248,-0.387 0.236,-0.38C0.225,-0.374 0.217,-0.365 0.211,-0.353C0.205,-0.341 0.202,-0.326 0.202,-0.309L0.192,-0.421C0.206,-0.451 0.223,-0.474 0.246,-0.49C0.268,-0.506 0.293,-0.514 0.32,-0.514C0.374,-0.514 0.416,-0.495 0.446,-0.456C0.475,-0.418 0.49,-0.363 0.49,-0.293L0.49,-0.212C0.49,-0.142 0.475,-0.088 0.446,-0.05C0.416,-0.012 0.374,0.007 0.32,0.007ZM0.068,-0L0.068,-0.71L0.202,-0.71L0.202,-0L0.068,-0Z" style="fill:white;fill-rule:nonzero;"/>
            </g>
            <g transform="matrix(196.567,0,0,196.567,3458.39,703)">
                <path d="M0.202,-0.71L0.202,-0.167C0.202,-0.155 0.206,-0.146 0.212,-0.139C0.22,-0.132 0.23,-0.129 0.243,-0.129L0.265,-0.129L0.265,-0L0.197,-0C0.156,-0 0.125,-0.012 0.102,-0.035C0.08,-0.059 0.068,-0.092 0.068,-0.134L0.068,-0.71L0.202,-0.71Z" style="fill:white;fill-rule:nonzero;"/>
            </g>
            <g transform="matrix(196.567,0,0,196.567,3515.31,703)">
                <path d="M0.286,0.007C0.212,0.007 0.155,-0.012 0.114,-0.052C0.074,-0.091 0.054,-0.147 0.054,-0.22L0.054,-0.277C0.054,-0.352 0.073,-0.411 0.112,-0.452C0.151,-0.493 0.206,-0.514 0.277,-0.514C0.344,-0.514 0.396,-0.489 0.432,-0.44C0.469,-0.391 0.487,-0.321 0.487,-0.232L0.487,-0.199L0.141,-0.199L0.141,-0.289L0.365,-0.289L0.364,-0.301C0.36,-0.33 0.351,-0.352 0.336,-0.368C0.322,-0.384 0.302,-0.393 0.277,-0.393C0.245,-0.393 0.22,-0.383 0.202,-0.364C0.184,-0.345 0.175,-0.317 0.175,-0.282L0.175,-0.218C0.175,-0.183 0.185,-0.157 0.204,-0.138C0.224,-0.119 0.251,-0.109 0.286,-0.109C0.304,-0.109 0.321,-0.112 0.339,-0.119C0.356,-0.125 0.372,-0.134 0.387,-0.146L0.474,-0.068C0.448,-0.044 0.418,-0.026 0.385,-0.012C0.352,0.001 0.319,0.007 0.286,0.007Z" style="fill:white;fill-rule:nonzero;"/>
            </g>
            <g transform="matrix(196.567,0,0,196.567,3620.69,703)">
                <path d="M0.342,-0L0.342,-0.71L0.476,-0.71L0.476,-0L0.342,-0ZM0.224,0.007C0.17,0.007 0.128,-0.012 0.098,-0.05C0.069,-0.088 0.054,-0.142 0.054,-0.212L0.054,-0.293C0.054,-0.363 0.069,-0.418 0.098,-0.456C0.128,-0.495 0.17,-0.514 0.224,-0.514C0.251,-0.514 0.276,-0.506 0.298,-0.49C0.32,-0.474 0.338,-0.451 0.352,-0.421L0.342,-0.309C0.342,-0.326 0.339,-0.341 0.333,-0.353C0.327,-0.365 0.319,-0.374 0.307,-0.38C0.296,-0.387 0.283,-0.39 0.267,-0.39C0.242,-0.39 0.222,-0.382 0.208,-0.364C0.194,-0.347 0.188,-0.323 0.188,-0.292L0.188,-0.212C0.188,-0.182 0.194,-0.158 0.208,-0.142C0.222,-0.125 0.242,-0.117 0.267,-0.117C0.283,-0.117 0.296,-0.12 0.307,-0.126C0.319,-0.132 0.327,-0.141 0.333,-0.153C0.339,-0.165 0.342,-0.179 0.342,-0.195L0.349,-0.08C0.339,-0.052 0.323,-0.03 0.301,-0.015C0.279,-0 0.254,0.007 0.224,0.007Z" style="fill:white;fill-rule:nonzero;"/>
            </g>
            <g transform="matrix(196.567,0,0,196.567,3726.65,703)">
            </g>
            <g transform="matrix(196.567,0,0,196.567,3779.44,703)">
                <path d="M0.061,-0.576L0.061,-0.71L0.195,-0.71L0.195,-0.576L0.061,-0.576ZM0.061,-0L0.061,-0.507L0.195,-0.507L0.195,-0L0.061,-0Z" style="fill:white;fill-rule:nonzero;"/>
            </g>
            <g transform="matrix(196.567,0,0,196.567,3828.78,703)">
                <path d="M0.068,-0L0.068,-0.507L0.202,-0.507L0.202,-0L0.068,-0ZM0.361,-0L0.361,-0.307C0.361,-0.332 0.354,-0.351 0.34,-0.365C0.326,-0.378 0.306,-0.385 0.28,-0.385C0.255,-0.385 0.236,-0.378 0.222,-0.364C0.209,-0.351 0.202,-0.331 0.202,-0.306L0.192,-0.418C0.207,-0.449 0.224,-0.473 0.245,-0.489C0.266,-0.506 0.294,-0.514 0.327,-0.514C0.381,-0.514 0.422,-0.496 0.451,-0.46C0.48,-0.424 0.495,-0.373 0.495,-0.308L0.495,-0L0.361,-0Z" style="fill:white;fill-rule:nonzero;"/>
            </g>
            <g transform="matrix(196.567,0,0,196.567,3938.58,703)">
            </g>
            <g transform="matrix(196.567,0,0,196.567,3991.37,703)">
                <path d="M0.32,0.007C0.266,0.007 0.22,-0.003 0.181,-0.023C0.143,-0.044 0.114,-0.074 0.094,-0.114C0.074,-0.153 0.063,-0.201 0.063,-0.257L0.063,-0.452C0.063,-0.508 0.074,-0.556 0.094,-0.596C0.114,-0.635 0.143,-0.665 0.181,-0.686C0.22,-0.707 0.266,-0.717 0.32,-0.717C0.365,-0.717 0.405,-0.708 0.44,-0.688C0.475,-0.669 0.504,-0.641 0.527,-0.605C0.55,-0.569 0.566,-0.524 0.575,-0.472L0.436,-0.472C0.431,-0.496 0.423,-0.516 0.412,-0.532C0.401,-0.549 0.388,-0.562 0.372,-0.57C0.357,-0.579 0.34,-0.583 0.32,-0.583C0.283,-0.583 0.254,-0.572 0.233,-0.549C0.212,-0.526 0.202,-0.494 0.202,-0.452L0.202,-0.257C0.202,-0.216 0.212,-0.183 0.233,-0.161C0.254,-0.138 0.283,-0.126 0.32,-0.126C0.35,-0.126 0.374,-0.136 0.395,-0.155C0.415,-0.175 0.429,-0.202 0.436,-0.238L0.575,-0.238C0.566,-0.186 0.549,-0.142 0.526,-0.105C0.504,-0.069 0.475,-0.041 0.44,-0.021C0.405,-0.002 0.365,0.007 0.32,0.007Z" style="fill:white;fill-rule:nonzero;"/>
            </g>
            <g transform="matrix(196.567,0,0,196.567,4107.21,703)">
                <path d="M0.01,-0L0.281,-0.71L0.366,-0.71L0.638,-0L0.494,-0L0.324,-0.485L0.154,-0L0.01,-0ZM0.14,-0.114L0.14,-0.243L0.514,-0.243L0.514,-0.114L0.14,-0.114Z" style="fill:white;fill-rule:nonzero;"/>
            </g>
            <g transform="matrix(196.567,0,0,196.567,4234.48,703)">
                <path d="M0.078,-0L0.078,-0.71L0.242,-0.71L0.506,-0.166L0.494,-0.153L0.494,-0.71L0.622,-0.71L0.622,-0L0.458,-0L0.194,-0.536L0.206,-0.549L0.206,-0L0.078,-0Z" style="fill:white;fill-rule:nonzero;"/>
            </g>
            <g transform="matrix(196.567,0,0,196.567,4370.2,703)">
                <path d="M0.01,-0L0.281,-0.71L0.366,-0.71L0.638,-0L0.494,-0L0.324,-0.485L0.154,-0L0.01,-0ZM0.14,-0.114L0.14,-0.243L0.514,-0.243L0.514,-0.114L0.14,-0.114Z" style="fill:white;fill-rule:nonzero;"/>
            </g>
            <g transform="matrix(196.567,0,0,196.567,4497.47,703)">
                <path d="M0.146,-0L0.146,-0.129L0.316,-0.129C0.36,-0.129 0.394,-0.139 0.418,-0.161C0.442,-0.182 0.454,-0.212 0.454,-0.25L0.454,-0.459C0.454,-0.498 0.442,-0.528 0.418,-0.549C0.394,-0.57 0.36,-0.581 0.316,-0.581L0.146,-0.581L0.146,-0.71L0.313,-0.71C0.402,-0.71 0.471,-0.688 0.52,-0.643C0.568,-0.599 0.593,-0.536 0.593,-0.456L0.593,-0.254C0.593,-0.204 0.582,-0.16 0.562,-0.121C0.541,-0.083 0.509,-0.053 0.468,-0.032C0.426,-0.011 0.375,-0 0.313,-0L0.146,-0ZM0.078,-0L0.078,-0.71L0.212,-0.71L0.212,-0L0.078,-0Z" style="fill:white;fill-rule:nonzero;"/>
            </g>
            <g transform="matrix(196.567,0,0,196.567,4620.71,703)">
                <path d="M0.01,-0L0.281,-0.71L0.366,-0.71L0.638,-0L0.494,-0L0.324,-0.485L0.154,-0L0.01,-0ZM0.14,-0.114L0.14,-0.243L0.514,-0.243L0.514,-0.114L0.14,-0.114Z" style="fill:white;fill-rule:nonzero;"/>
            </g>
            <g transform="matrix(196.567,0,0,196.567,4747.98,703)">
            </g>
        </g>
    </g>
</svg>
