<?xml version="1.0" encoding="UTF-8" standalone="no"?>
<!DOCTYPE svg PUBLIC "-//W3C//DTD SVG 1.1//EN" "http://www.w3.org/Graphics/SVG/1.1/DTD/svg11.dtd">
<svg width="100%" height="100%" viewBox="0 0 1000 1000" version="1.1" xmlns="http://www.w3.org/2000/svg" xmlns:xlink="http://www.w3.org/1999/xlink" xml:space="preserve" xmlns:serif="http://www.serif.com/" style="fill-rule:evenodd;clip-rule:evenodd;stroke-linejoin:round;stroke-miterlimit:2;">
    <rect id="Artboard1" x="0" y="0" width="1000" height="1000" style="fill:none;"/>
    <clipPath id="_clip1">
        <rect id="Artboard11" serif:id="Artboard1" x="0" y="0" width="1000" height="1000"/>
    </clipPath>
    <g clip-path="url(#_clip1)">
        <g transform="matrix(1.46515,0,0,1.46515,-95.4409,-452.936)">
            <g transform="matrix(144,0,0,144,56,703)">
                <path d="M0.32,0.007C0.266,0.007 0.22,-0.003 0.181,-0.023C0.143,-0.044 0.114,-0.074 0.094,-0.114C0.074,-0.153 0.063,-0.201 0.063,-0.257L0.063,-0.452C0.063,-0.508 0.074,-0.556 0.094,-0.596C0.114,-0.635 0.143,-0.665 0.181,-0.686C0.22,-0.707 0.266,-0.717 0.32,-0.717C0.365,-0.717 0.405,-0.708 0.44,-0.688C0.475,-0.669 0.504,-0.641 0.527,-0.605C0.55,-0.569 0.566,-0.524 0.575,-0.472L0.436,-0.472C0.431,-0.496 0.423,-0.516 0.412,-0.532C0.401,-0.549 0.388,-0.562 0.372,-0.57C0.357,-0.579 0.34,-0.583 0.32,-0.583C0.283,-0.583 0.254,-0.572 0.233,-0.549C0.212,-0.526 0.202,-0.494 0.202,-0.452L0.202,-0.257C0.202,-0.216 0.212,-0.183 0.233,-0.161C0.254,-0.138 0.283,-0.126 0.32,-0.126C0.35,-0.126 0.374,-0.136 0.395,-0.155C0.415,-0.175 0.429,-0.202 0.436,-0.238L0.575,-0.238C0.566,-0.186 0.549,-0.142 0.526,-0.105C0.504,-0.069 0.475,-0.041 0.44,-0.021C0.405,-0.002 0.365,0.007 0.32,0.007Z" style="fill-rule:nonzero;"/>
            </g>
            <g transform="matrix(144,0,0,144,145.086,703)">
                <path d="M0.272,0.007C0.203,0.007 0.149,-0.012 0.111,-0.05C0.073,-0.089 0.054,-0.143 0.054,-0.213L0.054,-0.296C0.054,-0.365 0.073,-0.419 0.111,-0.457C0.149,-0.495 0.203,-0.514 0.272,-0.514C0.342,-0.514 0.396,-0.495 0.434,-0.457C0.472,-0.419 0.491,-0.365 0.491,-0.296L0.491,-0.212C0.491,-0.142 0.472,-0.088 0.434,-0.05C0.396,-0.012 0.342,0.007 0.272,0.007ZM0.272,-0.122C0.299,-0.122 0.32,-0.129 0.335,-0.145C0.35,-0.161 0.357,-0.183 0.357,-0.212L0.357,-0.296C0.357,-0.324 0.35,-0.346 0.335,-0.362C0.32,-0.377 0.299,-0.385 0.272,-0.385C0.245,-0.385 0.224,-0.377 0.209,-0.362C0.195,-0.346 0.188,-0.324 0.188,-0.296L0.188,-0.212C0.188,-0.183 0.195,-0.161 0.209,-0.145C0.224,-0.129 0.245,-0.122 0.272,-0.122Z" style="fill-rule:nonzero;"/>
            </g>
            <g transform="matrix(144,0,0,144,223.555,703)">
                <path d="M0.068,-0L0.068,-0.507L0.202,-0.507L0.202,-0L0.068,-0ZM0.361,-0L0.361,-0.307C0.361,-0.332 0.354,-0.351 0.34,-0.365C0.326,-0.378 0.306,-0.385 0.28,-0.385C0.255,-0.385 0.236,-0.378 0.222,-0.364C0.209,-0.351 0.202,-0.331 0.202,-0.306L0.192,-0.418C0.207,-0.449 0.224,-0.473 0.245,-0.489C0.266,-0.506 0.294,-0.514 0.327,-0.514C0.381,-0.514 0.422,-0.496 0.451,-0.46C0.48,-0.424 0.495,-0.373 0.495,-0.308L0.495,-0L0.361,-0Z" style="fill-rule:nonzero;"/>
            </g>
            <g transform="matrix(144,0,0,144,303.992,703)">
                <path d="M0.21,0.002C0.165,0.002 0.132,-0.009 0.112,-0.032C0.092,-0.055 0.082,-0.089 0.082,-0.132L0.082,-0.654L0.215,-0.654L0.215,-0.165C0.215,-0.153 0.218,-0.144 0.223,-0.137C0.228,-0.13 0.235,-0.126 0.244,-0.126L0.277,-0.126L0.277,0.002L0.21,0.002ZM0.029,-0.393L0.029,-0.507L0.277,-0.507L0.277,-0.393L0.029,-0.393Z" style="fill-rule:nonzero;"/>
            </g>
            <g transform="matrix(144,0,0,144,350.961,703)">
                <path d="M0.347,-0L0.347,-0.321C0.347,-0.345 0.339,-0.363 0.324,-0.375C0.308,-0.388 0.286,-0.395 0.257,-0.395C0.238,-0.395 0.22,-0.391 0.201,-0.385C0.183,-0.379 0.166,-0.371 0.152,-0.359L0.069,-0.441C0.089,-0.464 0.116,-0.482 0.149,-0.495C0.182,-0.508 0.219,-0.514 0.259,-0.514C0.326,-0.514 0.378,-0.498 0.414,-0.465C0.451,-0.432 0.469,-0.386 0.469,-0.326L0.469,-0L0.347,-0ZM0.206,0.007C0.152,0.007 0.111,-0.006 0.084,-0.031C0.057,-0.057 0.044,-0.096 0.044,-0.149C0.044,-0.2 0.059,-0.237 0.089,-0.262C0.119,-0.287 0.164,-0.3 0.225,-0.3L0.352,-0.3L0.358,-0.198L0.225,-0.198C0.205,-0.198 0.19,-0.194 0.18,-0.186C0.17,-0.178 0.165,-0.166 0.165,-0.149C0.165,-0.133 0.171,-0.12 0.184,-0.112C0.197,-0.104 0.216,-0.101 0.241,-0.101C0.277,-0.101 0.303,-0.105 0.321,-0.113C0.338,-0.121 0.347,-0.134 0.347,-0.151L0.357,-0.077C0.355,-0.058 0.347,-0.042 0.332,-0.029C0.316,-0.017 0.297,-0.008 0.275,-0.001C0.253,0.004 0.23,0.007 0.206,0.007Z" style="fill-rule:nonzero;"/>
            </g>
            <g transform="matrix(144,0,0,144,427.602,703)">
                <path d="M0.283,0.007C0.21,0.007 0.154,-0.013 0.114,-0.054C0.074,-0.095 0.054,-0.153 0.054,-0.228L0.054,-0.282C0.054,-0.356 0.074,-0.413 0.114,-0.453C0.154,-0.494 0.21,-0.514 0.283,-0.514C0.324,-0.514 0.362,-0.507 0.396,-0.493C0.429,-0.479 0.456,-0.459 0.476,-0.433L0.39,-0.349C0.378,-0.361 0.363,-0.369 0.346,-0.375C0.33,-0.382 0.312,-0.385 0.294,-0.385C0.26,-0.385 0.234,-0.376 0.215,-0.358C0.197,-0.34 0.188,-0.315 0.188,-0.282L0.188,-0.228C0.188,-0.194 0.197,-0.167 0.215,-0.149C0.234,-0.131 0.26,-0.122 0.294,-0.122C0.312,-0.122 0.33,-0.125 0.346,-0.132C0.363,-0.139 0.378,-0.148 0.39,-0.161L0.476,-0.072C0.456,-0.047 0.429,-0.027 0.396,-0.013C0.362,0 0.324,0.007 0.283,0.007Z" style="fill-rule:nonzero;"/>
            </g>
            <g transform="matrix(144,0,0,144,499.32,703)">
                <path d="M0.21,0.002C0.165,0.002 0.132,-0.009 0.112,-0.032C0.092,-0.055 0.082,-0.089 0.082,-0.132L0.082,-0.654L0.215,-0.654L0.215,-0.165C0.215,-0.153 0.218,-0.144 0.223,-0.137C0.228,-0.13 0.235,-0.126 0.244,-0.126L0.277,-0.126L0.277,0.002L0.21,0.002ZM0.029,-0.393L0.029,-0.507L0.277,-0.507L0.277,-0.393L0.029,-0.393Z" style="fill-rule:nonzero;"/>
            </g>
            <g transform="matrix(144,0,0,144,546.289,703)">
            </g>
            <g transform="matrix(144,0,0,144,584.961,703)">
                <path d="M0.327,0.007C0.245,0.007 0.181,-0.016 0.136,-0.062C0.091,-0.108 0.068,-0.173 0.068,-0.257L0.068,-0.71L0.202,-0.71L0.202,-0.253C0.202,-0.213 0.213,-0.181 0.235,-0.159C0.257,-0.136 0.287,-0.125 0.327,-0.125C0.367,-0.125 0.398,-0.136 0.42,-0.159C0.442,-0.181 0.453,-0.213 0.453,-0.253L0.453,-0.71L0.587,-0.71L0.587,-0.257C0.587,-0.173 0.564,-0.108 0.519,-0.062C0.474,-0.016 0.41,0.007 0.327,0.007Z" style="fill-rule:nonzero;"/>
            </g>
            <g transform="matrix(144,0,0,144,678.617,703)">
                <path d="M0.262,0.007C0.217,0.007 0.173,0.001 0.132,-0.011C0.091,-0.023 0.056,-0.04 0.027,-0.062L0.109,-0.165C0.134,-0.149 0.159,-0.137 0.186,-0.129C0.213,-0.12 0.238,-0.116 0.262,-0.116C0.293,-0.116 0.318,-0.12 0.335,-0.126C0.352,-0.134 0.361,-0.143 0.361,-0.156C0.361,-0.171 0.355,-0.181 0.343,-0.187C0.331,-0.192 0.316,-0.196 0.296,-0.197C0.277,-0.199 0.257,-0.202 0.235,-0.205C0.214,-0.208 0.192,-0.211 0.17,-0.215C0.149,-0.219 0.13,-0.226 0.112,-0.235C0.095,-0.244 0.081,-0.258 0.07,-0.277C0.06,-0.296 0.055,-0.321 0.055,-0.354C0.055,-0.405 0.073,-0.444 0.109,-0.472C0.145,-0.5 0.196,-0.514 0.262,-0.514C0.301,-0.514 0.339,-0.508 0.376,-0.497C0.414,-0.486 0.448,-0.47 0.478,-0.449L0.398,-0.352C0.376,-0.364 0.353,-0.374 0.329,-0.38C0.305,-0.387 0.281,-0.391 0.259,-0.391C0.232,-0.391 0.211,-0.388 0.196,-0.381C0.181,-0.375 0.174,-0.367 0.174,-0.355C0.174,-0.346 0.179,-0.338 0.189,-0.333C0.2,-0.329 0.214,-0.325 0.23,-0.323C0.247,-0.321 0.266,-0.319 0.285,-0.316C0.308,-0.314 0.33,-0.311 0.353,-0.307C0.376,-0.303 0.397,-0.296 0.416,-0.287C0.435,-0.277 0.45,-0.262 0.462,-0.242C0.474,-0.222 0.479,-0.195 0.479,-0.16C0.479,-0.107 0.46,-0.066 0.422,-0.037C0.385,-0.007 0.331,0.007 0.262,0.007Z" style="fill-rule:nonzero;"/>
            </g>
            <g transform="matrix(144,0,0,144,753.289,703)">
            </g>
        </g>
    </g>
</svg>
