<?xml version="1.0" encoding="UTF-8" standalone="no"?>
<!DOCTYPE svg PUBLIC "-//W3C//DTD SVG 1.1//EN" "http://www.w3.org/Graphics/SVG/1.1/DTD/svg11.dtd">
<svg width="100%" height="100%" viewBox="0 0 3508 2481" version="1.1" xmlns="http://www.w3.org/2000/svg" xmlns:xlink="http://www.w3.org/1999/xlink" xml:space="preserve" xmlns:serif="http://www.serif.com/" style="fill-rule:evenodd;clip-rule:evenodd;stroke-linejoin:round;stroke-miterlimit:2;">
    <g transform="matrix(9.5561,0,0,8.27572,-8553.75,-1377.27)">
        <g transform="matrix(1.05056,-0.324562,0.326542,1.40932,319.481,-428.502)">
            <path d="M399.498,691.765C394.623,691.765 389.842,691.272 385.154,690.288C380.514,689.304 376.154,687.874 372.076,685.999C367.998,684.077 364.318,681.78 361.037,679.108L369.967,663.218C373.904,666.452 378.451,668.96 383.607,670.741C388.764,672.476 394.061,673.343 399.498,673.343C405.779,673.343 410.654,672.288 414.123,670.179C417.592,668.022 419.326,664.999 419.326,661.108L419.326,661.038C419.326,658.085 418.459,655.835 416.725,654.288C414.99,652.694 412.693,651.522 409.834,650.772C407.021,650.022 403.951,649.39 400.623,648.874C396.639,648.265 392.607,647.515 388.529,646.624C384.451,645.687 380.701,644.233 377.279,642.265C373.857,640.249 371.092,637.39 368.982,633.687C366.92,629.983 365.889,625.038 365.889,618.851L365.889,618.78C365.889,608.796 369.17,601.085 375.732,595.647C382.295,590.163 391.576,587.421 403.576,587.421C409.107,587.421 414.732,588.358 420.451,590.233C426.17,592.062 431.49,594.687 436.412,598.108L428.256,614.421C424.318,611.655 420.193,609.546 415.881,608.093C411.615,606.593 407.514,605.843 403.576,605.843C397.67,605.843 393.1,606.827 389.865,608.796C386.631,610.718 385.014,613.437 385.014,616.952L385.014,617.022C385.014,620.304 385.975,622.788 387.896,624.476C389.818,626.163 392.326,627.429 395.42,628.272C398.514,629.069 401.842,629.819 405.404,630.522C409.342,631.272 413.256,632.21 417.146,633.335C421.037,634.413 424.6,635.983 427.834,638.046C431.068,640.108 433.646,642.944 435.568,646.554C437.49,650.163 438.451,654.851 438.451,660.616L438.451,660.757C438.451,670.601 435.053,678.241 428.256,683.679C421.459,689.069 411.873,691.765 399.498,691.765Z" style="fill-rule:nonzero;"/>
        </g>
        <g transform="matrix(1.05045,0.325015,-0.326998,1.40918,989.191,-687.899)">
            <path d="M399.498,691.765C394.623,691.765 389.842,691.272 385.154,690.288C380.514,689.304 376.154,687.874 372.076,685.999C367.998,684.077 364.318,681.78 361.037,679.108L369.967,663.218C373.904,666.452 378.451,668.96 383.607,670.741C388.764,672.476 394.061,673.343 399.498,673.343C405.779,673.343 410.654,672.288 414.123,670.179C417.592,668.022 419.326,664.999 419.326,661.108L419.326,661.038C419.326,658.085 418.459,655.835 416.725,654.288C414.99,652.694 412.693,651.522 409.834,650.772C407.021,650.022 403.951,649.39 400.623,648.874C396.639,648.265 392.607,647.515 388.529,646.624C384.451,645.687 380.701,644.233 377.279,642.265C373.857,640.249 371.092,637.39 368.982,633.687C366.92,629.983 365.889,625.038 365.889,618.851L365.889,618.78C365.889,608.796 369.17,601.085 375.732,595.647C382.295,590.163 391.576,587.421 403.576,587.421C409.107,587.421 414.732,588.358 420.451,590.233C426.17,592.062 431.49,594.687 436.412,598.108L428.256,614.421C424.318,611.655 420.193,609.546 415.881,608.093C411.615,606.593 407.514,605.843 403.576,605.843C397.67,605.843 393.1,606.827 389.865,608.796C386.631,610.718 385.014,613.437 385.014,616.952L385.014,617.022C385.014,620.304 385.975,622.788 387.896,624.476C389.818,626.163 392.326,627.429 395.42,628.272C398.514,629.069 401.842,629.819 405.404,630.522C409.342,631.272 413.256,632.21 417.146,633.335C421.037,634.413 424.6,635.983 427.834,638.046C431.068,640.108 433.646,642.944 435.568,646.554C437.49,650.163 438.451,654.851 438.451,660.616L438.451,660.757C438.451,670.601 435.053,678.241 428.256,683.679C421.459,689.069 411.873,691.765 399.498,691.765Z" style="fill-rule:nonzero;"/>
        </g>
        <g transform="matrix(1.16048,0,0,1.34002,549.479,-912.876)">
            <g transform="matrix(1.42814,0,0,0.697414,-141.701,440.589)">
                <path d="M389.795,656.679L409.342,588.476L424.811,588.476L444.357,656.679L457.506,588.476L477.334,588.476L443.276,763.187L417.076,635.045L388.776,763.187L356.818,588.476L376.646,588.476L389.795,656.679Z"/>
            </g>
            <g transform="matrix(0.339116,0,0,1.0443,272.471,131.38)">
                <path d="M551.462,779.364L582.316,805.769L487.953,805.769L517.633,779.364L551.462,779.364Z" style="fill:rgb(255,100,0);"/>
            </g>
        </g>
    </g>
</svg>
